# File created by Blade
# Date/Time:  Thu Jan 22 19:49:01 2015
# Frame Rate: 120.000 fps
#------------------------------------------------------
:FULLY-SPECIFIED
:DEGREES
1926
root -2.465234 3.134888 -10.672454 -27.501489 3.413066 -0.311964
RightUpLeg -61.193420 -7.824094 4.652748
RightLeg 5.026965 -0.000000 -0.000000
RightFoot 21.939999 -3.382770 10.984035
RightToeBase -14.688173 -0.000000 0.000000
LeftUpLeg -89.802164 -34.310966 -45.463186
LeftLeg 119.635110 -0.000000 -0.000000
LeftFoot 6.434230 14.524831 -8.819638
LeftToeBase -14.809146 -0.000000 0.000000
Spine 42.545371 42.678173 21.267128
RightShoulder 9.111994 16.052338 -19.526384
RightArm 85.197621 -43.024648 15.298451
RightForeArm -9.687798 0.000000 63.972259
RightHand 14.765468 -0.000000 41.908496
RightHandThumb1 -24.326973 -0.000000 -32.862282
LeftShoulder -18.986003 3.242808 19.681312
LeftArm 3.742642 31.246963 -94.493580
LeftForeArm -8.391887 -0.000000 6.431172
LeftHand -19.875850 -0.000000 59.225217
LeftHandThumb1 -26.253704 0.000000 33.147579
Head -23.600056 -7.277840 3.034201
1927
root -2.463299 3.131328 -10.669032 -27.491601 3.334812 -0.328118
RightUpLeg -61.202702 -7.747817 4.679132
RightLeg 5.031277 -0.000000 -0.000000
RightFoot 21.920138 -3.375116 10.983050
RightToeBase -14.694832 -0.000000 0.000000
LeftUpLeg -89.869407 -34.312051 -45.400915
LeftLeg 119.658057 -0.000000 -0.000000
LeftFoot 6.431601 14.549218 -8.809057
LeftToeBase -14.744560 -0.000000 0.000000
Spine 42.460275 42.582037 21.141549
RightShoulder 9.159461 16.129349 -19.527731
RightArm 85.020972 -42.968940 15.700619
RightForeArm -9.929855 -0.000000 63.911671
RightHand 14.855723 -0.000000 41.745472
RightHandThumb1 -24.326973 -0.000000 -32.862282
LeftShoulder -18.985581 3.363718 19.671016
LeftArm 3.657940 31.067803 -94.526855
LeftForeArm -8.389718 -0.000000 6.534683
LeftHand -19.870476 -0.000000 59.245738
LeftHandThumb1 -26.253704 0.000000 33.147579
Head -23.680852 -8.533862 3.607067
1928
root -2.460669 3.128843 -10.664691 -27.453911 3.246051 -0.372761
RightUpLeg -61.234071 -7.692978 4.765719
RightLeg 5.020366 -0.000000 -0.000000
RightFoot 21.922228 -3.352060 11.032238
RightToeBase -14.710402 -0.000000 0.000000
LeftUpLeg -89.950808 -34.306780 -45.315169
LeftLeg 119.688778 -0.000000 -0.000000
LeftFoot 6.416337 14.552656 -8.775383
LeftToeBase -14.691380 -0.000000 0.000000
Spine 42.325886 42.510791 21.014535
RightShoulder 9.163464 16.198227 -19.515777
RightArm 84.863929 -42.931885 16.096699
RightForeArm -10.184314 0.000000 63.846183
RightHand 15.005805 -0.000000 41.562408
RightHandThumb1 -24.326973 -0.000000 -32.862282
LeftShoulder -18.978426 3.429606 19.676890
LeftArm 3.495397 30.873067 -94.590759
LeftForeArm -8.429132 -0.000000 6.643323
LeftHand -19.850599 -0.000000 59.301439
LeftHandThumb1 -26.253704 0.000000 33.147579
Head -23.788184 -9.738826 4.173838
1929
root -2.458702 3.125115 -10.660531 -27.447383 3.165737 -0.396997
RightUpLeg -61.236637 -7.620646 4.804223
RightLeg 5.015626 -0.000000 -0.000000
RightFoot 21.897441 -3.349786 11.003936
RightToeBase -14.692884 -0.000000 0.000000
LeftUpLeg -90.018383 -34.309534 -45.238232
LeftLeg 119.715229 -0.000000 -0.000000
LeftFoot 6.392302 14.571751 -8.864391
LeftToeBase -14.718321 -0.000000 0.000000
Spine 42.245835 42.408521 20.892252
RightShoulder 9.201234 16.282108 -19.539609
RightArm 84.612088 -42.892618 16.630920
RightForeArm -10.420406 -0.000000 63.790498
RightHand 15.052491 -0.000000 41.522533
RightHandThumb1 -24.326973 -0.000000 -32.862282
LeftShoulder -18.984980 3.484563 19.688417
LeftArm 3.334908 30.676594 -94.661480
LeftForeArm -8.400344 -0.000000 6.743383
LeftHand -19.885762 -0.000000 59.314841
LeftHandThumb1 -26.253704 0.000000 33.147579
Head -23.892756 -10.872957 4.707457
1930
root -2.457574 3.121055 -10.657023 -27.436923 3.096763 -0.406513
RightUpLeg -61.248744 -7.551910 4.821845
RightLeg 5.026773 -0.000000 -0.000000
RightFoot 21.859569 -3.337333 10.988124
RightToeBase -14.683053 -0.000000 0.000000
LeftUpLeg -90.092502 -34.319483 -45.165874
LeftLeg 119.739281 -0.000000 -0.000000
LeftFoot 6.359900 14.590912 -8.923114
LeftToeBase -14.685540 -0.000000 0.000000
Spine 42.155362 42.321570 20.748760
RightShoulder 9.268694 16.381378 -19.551094
RightArm 84.316547 -42.846304 17.143700
RightForeArm -10.536511 -0.000000 63.758805
RightHand 15.142460 -0.000000 41.424871
RightHandThumb1 -24.326973 -0.000000 -32.862282
LeftShoulder -18.949096 3.569667 19.715549
LeftArm 3.218041 30.497190 -94.727315
LeftForeArm -8.448428 -0.000000 6.824344
LeftHand -19.940158 -0.000000 59.322058
LeftHandThumb1 -26.253704 0.000000 33.147579
Head -23.973130 -11.941058 5.246637
1931
root -2.454737 3.118805 -10.653644 -27.434831 3.022648 -0.415435
RightUpLeg -61.243534 -7.484348 4.847664
RightLeg 5.015250 -0.000000 -0.000000
RightFoot 21.851090 -3.338026 10.977539
RightToeBase -14.695053 -0.000000 0.000000
LeftUpLeg -90.139580 -34.309610 -45.122868
LeftLeg 119.755706 -0.000000 -0.000000
LeftFoot 6.344379 14.618746 -8.916928
LeftToeBase -14.571383 -0.000000 0.000000
Spine 42.093610 42.241662 20.629728
RightShoulder 9.307229 16.468025 -19.566044
RightArm 84.018299 -42.794339 17.649248
RightForeArm -10.730139 -0.000000 63.759665
RightHand 15.219597 -0.000000 41.335735
RightHandThumb1 -24.326973 -0.000000 -32.862282
LeftShoulder -18.916117 3.536226 19.764831
LeftArm 2.974137 30.361511 -94.845009
LeftForeArm -8.535832 -0.000000 6.900389
LeftHand -19.931905 -0.000000 59.354907
LeftHandThumb1 -26.253704 0.000000 33.147579
Head -24.064287 -12.901052 5.762745
1932
root -2.452161 3.115985 -10.649883 -27.418399 2.952092 -0.438937
RightUpLeg -61.254204 -7.429952 4.893602
RightLeg 5.008526 -0.000000 -0.000000
RightFoot 21.819355 -3.331862 10.979456
RightToeBase -14.672042 -0.000000 0.000000
LeftUpLeg -90.204813 -34.326548 -45.048441
LeftLeg 119.775687 -0.000000 -0.000000
LeftFoot 6.341305 14.626963 -8.911010
LeftToeBase -14.642414 -0.000000 0.000000
Spine 42.002445 42.164821 20.502622
RightShoulder 9.324085 16.529344 -19.571964
RightArm 83.735004 -42.728257 18.144177
RightForeArm -10.882904 -0.000000 63.779156
RightHand 15.241059 -0.000000 41.100128
RightHandThumb1 -24.326973 -0.000000 -32.862282
LeftShoulder -18.909163 3.549371 19.794042
LeftArm 2.787068 30.281968 -94.917875
LeftForeArm -8.639068 -0.000000 6.998565
LeftHand -19.968730 -0.000000 59.418216
LeftHandThumb1 -26.253704 0.000000 33.147579
Head -24.178154 -13.885320 6.311459
1933
root -2.449802 3.112451 -10.646894 -27.405113 2.890457 -0.460491
RightUpLeg -61.264446 -7.373431 4.914456
RightLeg 5.007999 -0.000000 -0.000000
RightFoot 21.786829 -3.334178 10.980668
RightToeBase -14.615058 -0.000000 0.000000
LeftUpLeg -90.259105 -34.329605 -44.994317
LeftLeg 119.790113 -0.000000 -0.000000
LeftFoot 6.323307 14.655285 -8.980205
LeftToeBase -14.603424 -0.000000 0.000000
Spine 41.932813 42.073675 20.389481
RightShoulder 9.345138 16.599207 -19.604105
RightArm 83.460257 -42.653408 18.656302
RightForeArm -10.944878 -0.000000 63.751459
RightHand 15.297396 -0.000000 41.063517
RightHandThumb1 -24.326973 -0.000000 -32.862282
LeftShoulder -18.897240 3.605274 19.792358
LeftArm 2.651328 30.211004 -94.952817
LeftForeArm -8.750683 -0.000000 7.124150
LeftHand -20.005746 -0.000000 59.456591
LeftHandThumb1 -26.253704 0.000000 33.147579
Head -24.283086 -14.793318 6.790417
1934
root -2.447413 3.109894 -10.644182 -27.410806 2.833939 -0.456312
RightUpLeg -61.258119 -7.305636 4.897543
RightLeg 5.005517 -0.000000 -0.000000
RightFoot 21.780526 -3.350072 11.014566
RightToeBase -14.696076 -0.000000 0.000000
LeftUpLeg -90.291673 -34.305736 -44.971861
LeftLeg 119.804638 -0.000000 -0.000000
LeftFoot 6.313555 14.656252 -8.962537
LeftToeBase -14.585195 -0.000000 0.000000
Spine 41.889038 41.981374 20.258411
RightShoulder 9.395646 16.681177 -19.617577
RightArm 83.104336 -42.565860 19.232081
RightForeArm -11.077008 -0.000000 63.773023
RightHand 15.327135 -0.000000 41.112217
RightHandThumb1 -24.326973 -0.000000 -32.862282
LeftShoulder -18.861408 3.606365 19.820818
LeftArm 2.431496 30.104235 -95.037555
LeftForeArm -8.868405 -0.000000 7.264537
LeftHand -19.991216 0.000000 59.507444
LeftHandThumb1 -26.253704 0.000000 33.147579
Head -24.395508 -15.657546 7.259868
1935
root -2.445003 3.107409 -10.641319 -27.384892 2.781475 -0.458754
RightUpLeg -61.285864 -7.252675 4.918849
RightLeg 5.014240 -0.000000 -0.000000
RightFoot 21.747233 -3.336910 10.995841
RightToeBase -14.698478 -0.000000 0.000000
LeftUpLeg -90.344815 -34.304244 -44.937618
LeftLeg 119.818170 -0.000000 -0.000000
LeftFoot 6.296651 14.672675 -8.951019
LeftToeBase -14.553524 -0.000000 0.000000
Spine 41.760113 41.916188 20.065324
RightShoulder 9.447369 16.725488 -19.552195
RightArm 82.816335 -42.448221 19.690944
RightForeArm -11.219075 -0.000000 63.801828
RightHand 15.358091 -0.000000 41.047085
RightHandThumb1 -24.326973 -0.000000 -32.862282
LeftShoulder -18.877667 3.773705 19.826687
LeftArm 2.425993 30.059814 -95.029252
LeftForeArm -8.970124 -0.000000 7.375686
LeftHand -20.020910 0.000000 59.559057
LeftHandThumb1 -26.253704 0.000000 33.147579
Head -24.415438 -16.536587 7.826660
